<?xml version="1.0" standalone="no"?><!DOCTYPE svg PUBLIC "-//W3C//DTD SVG 1.1//EN" "http://www.w3.org/Graphics/SVG/1.1/DTD/svg11.dtd"><svg t="1554876360804" class="icon" style="" viewBox="0 0 1024 1024" version="1.1" xmlns="http://www.w3.org/2000/svg" p-id="1182" xmlns:xlink="http://www.w3.org/1999/xlink" width="200" height="200"><defs><style type="text/css"></style></defs><path d="M510.272 138.816c-155.968 0-282.4 123.776-282.4 276.48s126.432 276.48 282.4 276.48c156 0 282.4-123.776 282.4-276.48s-126.432-276.48-282.4-276.48zM184.192 521.44V266.176a145.92 145.92 0 0 0-10.624 0.416c57.856-125.632 186.752-213.12 336.768-213.12s278.88 87.488 336.768 213.12a129.28 129.28 0 0 0-10.624-0.416v255.264c72.032 0 130.464-57.152 130.464-127.616 0-47.872-26.944-89.568-66.816-111.424C844.032 124.416 690.944 10.944 510.336 10.944S176.64 124.416 120.544 282.368c-39.872 21.824-66.816 63.552-66.816 111.424 0 70.464 58.4 127.616 130.464 127.616z m607.904 146.336a416.512 416.512 0 0 1-281.824 108.704 416.416 416.416 0 0 1-281.408-108.352C96.864 734.624 10.208 852.96 10.208 1013.76h1003.52c0-161.088-88.288-279.584-221.664-345.984z" fill="#1296db" p-id="1183"></path></svg>